<?xml version="1.0" encoding="UTF-8" standalone="no"?>
<svg
   width="512"
   height="512"
   xmlns="http://www.w3.org/2000/svg"
   xmlns:svg="http://www.w3.org/2000/svg">
  <path
     d="m 309.23692,355.58083 c 7.497,7.496 7.497,19.651 0,27.147 l -52.316,52.318 c -7.811,7.81 -20.474,7.81 -28.285,0 l -52.315,-52.315 c -7.497,-7.497 -7.497,-19.652 0,-27.149 v 0 c 7.497,-7.497 19.652,-7.497 27.149,0 l 25.167,25.167 c 7.811,7.81 20.474,7.81 28.285,0 l 25.167,-25.168 c 7.497,-7.497 19.651,-7.497 27.148,0 z m 78.76,-185.66 c 7.81,7.81 7.81,20.473 0,28.284 l -131.075,131.075 c -7.811,7.811 -20.474,7.81 -28.285,0 l -104.633,-104.634 c -7.81,-7.81 -7.81,-20.473 0,-28.284 l 78.192,-78.1911 c 7.81,-7.8105 20.474,-7.8105 28.284,0 l 51.748,51.7491 c 7.811,7.81 7.811,20.473 0,28.284 l -25.874,25.875 c -7.497,7.497 -19.652,7.497 -27.149,0 l -0.354,-0.354 c -7.302,-7.301 -7.302,-19.14 0,-26.442 l 0.354,-0.354 c 7.106,-7.106 7.106,-18.628 0,-25.734 v 0 c -7.106,-7.107 -18.628,-7.107 -25.734,-0.001 l -25.168,25.168 c -7.811,7.811 -7.811,20.474 -0.001,28.284 l 50.335,50.336 c 7.811,7.811 20.474,7.811 28.285,0 l 76.777,-76.777 c 7.81,-7.811 7.81,-20.474 0,-28.284 l -51.61,-51.6111 c -7.497,-7.4968 -7.497,-19.6516 0,-27.148396 v 0 c 7.497,-7.4969 19.652,-7.4969 27.148,0 z m 105.766,-0.002 c 7.811,7.81 7.811,20.474 0,28.284 l -105.201,105.202 c -7.496,7.497 -19.651,7.497 -27.147,0 v 0 c -7.497,-7.496 -7.497,-19.651 0,-27.147 l 78.052,-78.053 c 7.811,-7.811 7.811,-20.474 0,-28.284 l -78.052,-78.052496 c -7.497,-7.4969 -7.497,-19.6517 0,-27.1487 v 0 c 7.497,-7.4972 19.652,-7.4973 27.149,-2.4e-4 z M 97.701716,144.04563 c 7.497104,7.4971 7.497104,19.6522 0,27.1492 l -25.167,25.167 c -7.8105,7.811 -7.8105,20.474 0,28.284 l 25.167,25.167 c 7.497104,7.497 7.497104,19.653 0,27.15 v 0 c -7.4971,7.497 -19.6524,7.497 -27.1494,0 l -52.3157,-52.317 c -7.81038,-7.81 -7.81037,-20.473 0,-28.284 l 52.3157,-52.3162 c 7.4971,-7.4971 19.6523,-7.4971 27.1494,0 z"
     fill="#ffffff" />
</svg>
